<svg width="300" height="82" viewBox="0 0 300 82" fill="none" xmlns="http://www.w3.org/2000/svg">
<rect width="300" height="82" rx="12" fill="#182951"/>
<path d="M0 4C0 1.79086 1.79086 0 4 0V82C1.79086 82 0 80.2091 0 78V4Z" fill="#F4B639"/>
<circle cx="18" cy="26" r="2" fill="#F4B639" fill-opacity="0.35"/>
<circle cx="28" cy="26" r="2" fill="#F4B639" fill-opacity="0.35"/>
<circle cx="38" cy="26" r="2" fill="#F4B639" fill-opacity="0.35"/>
<circle cx="18" cy="36" r="2" fill="#F4B639" fill-opacity="0.35"/>
<circle cx="28" cy="36" r="2" fill="#F4B639"/>
<circle cx="38" cy="36" r="2" fill="#F4B639" fill-opacity="0.35"/>
<circle cx="18" cy="46" r="2" fill="#F4B639" fill-opacity="0.35"/>
<circle cx="28" cy="46" r="2" fill="#F4B639" fill-opacity="0.35"/>
<circle cx="38" cy="46" r="2" fill="#F4B639" fill-opacity="0.35"/>
<path d="M58.1648 22.6364L62.7188 37.5511H62.8878L67.4418 22.6364H72.9503L66.0795 43H59.527L52.6562 22.6364H58.1648ZM75.6428 43V22.6364H89.8416V26.6335H80.5646V30.8097H89.1158V34.8168H80.5646V39.0028H89.8416V43H75.6428ZM93.424 43V22.6364H101.836C103.361 22.6364 104.676 22.9115 105.783 23.4616C106.897 24.0052 107.755 24.7874 108.359 25.8082C108.962 26.8224 109.263 28.0256 109.263 29.4176C109.263 30.8295 108.955 32.0294 108.339 33.017C107.722 33.9981 106.847 34.7472 105.714 35.2642C104.58 35.7746 103.238 36.0298 101.687 36.0298H96.3672V32.152H100.772C101.514 32.152 102.134 32.0559 102.631 31.8636C103.135 31.6648 103.516 31.3665 103.775 30.9688C104.033 30.5644 104.163 30.0473 104.163 29.4176C104.163 28.7879 104.033 28.2675 103.775 27.8565C103.516 27.4389 103.135 27.1274 102.631 26.9219C102.128 26.7098 101.508 26.6037 100.772 26.6037H98.3459V43H93.424ZM104.888 33.6932L109.96 43H104.59L99.6186 33.6932H104.888ZM112.463 43V22.6364H117.385V31.2472H117.653L124.385 22.6364H130.182L122.963 31.7244L130.311 43H124.425L119.354 34.9957L117.385 37.4815V43H112.463Z" fill="white"/>
<path d="M135.541 43V22.6364H140.463V39.0028H148.935V43H135.541ZM156.661 43H151.371L158.242 22.6364H164.794L171.665 43H166.375L161.593 27.767H161.434L156.661 43ZM155.955 34.9858H167.012V38.7244H155.955V34.9858ZM174.358 43V22.6364H182.849C184.374 22.6364 185.65 22.8518 186.677 23.2827C187.711 23.7135 188.487 24.3168 189.004 25.0923C189.528 25.8679 189.789 26.7661 189.789 27.7869C189.789 28.5625 189.627 29.2552 189.302 29.8651C188.977 30.4683 188.53 30.9687 187.96 31.3665C187.39 31.7642 186.73 32.0426 185.981 32.2017V32.4006C186.803 32.4403 187.562 32.6624 188.258 33.0668C188.961 33.4711 189.524 34.0346 189.949 34.7571C190.373 35.473 190.585 36.3215 190.585 37.3026C190.585 38.3963 190.306 39.3741 189.75 40.2358C189.193 41.0909 188.387 41.767 187.333 42.2642C186.279 42.7547 185 43 183.495 43H174.358ZM179.279 39.0327H182.322C183.389 39.0327 184.175 38.8305 184.679 38.4261C185.189 38.0218 185.444 37.4583 185.444 36.7358C185.444 36.2121 185.322 35.7614 185.076 35.3835C184.831 34.9991 184.483 34.7041 184.032 34.4986C183.582 34.2865 183.041 34.1804 182.412 34.1804H179.279V39.0327ZM179.279 31.0085H182.004C182.541 31.0085 183.018 30.919 183.436 30.7401C183.853 30.5611 184.178 30.3026 184.41 29.9645C184.649 29.6264 184.768 29.2187 184.768 28.7415C184.768 28.0587 184.526 27.5218 184.042 27.1307C183.558 26.7396 182.905 26.544 182.083 26.544H179.279V31.0085Z" fill="#F4B639"/>
<rect x="52" y="52" width="140" height="1" fill="white" fill-opacity="0.25"/>
<path d="M52.076 61.5455L53.5941 65.9879H53.6554L55.1735 61.5455H56.063L54.1001 67H53.1493L51.1864 61.5455H52.076ZM58.9548 67H58.0813L60.0441 61.5455H60.995L62.9579 67H62.0843L60.5422 62.5362H60.4996L58.9548 67ZM59.1013 64.864H61.9351V65.5565H59.1013V64.864ZM65.9455 67V61.5455H66.7685V66.2915H69.2401V67H65.9455ZM73.2019 61.5455V67H72.3789V61.5455H73.2019ZM78.3662 67H76.6004V61.5455H78.4222C78.9566 61.5455 79.4156 61.6547 79.7991 61.873C80.1826 62.0897 80.4765 62.4013 80.6807 62.8079C80.8866 63.2127 80.9896 63.6983 80.9896 64.2647C80.9896 64.8329 80.8858 65.3212 80.678 65.7296C80.4721 66.138 80.1738 66.4522 79.7831 66.6724C79.3925 66.8908 78.9202 67 78.3662 67ZM77.4234 66.2809H78.321C78.7364 66.2809 79.0818 66.2028 79.357 66.0465C79.6322 65.8885 79.8382 65.6603 79.9749 65.362C80.1116 65.062 80.18 64.6962 80.18 64.2647C80.18 63.8368 80.1116 63.4737 79.9749 63.1754C79.8399 62.8771 79.6384 62.6507 79.3703 62.4963C79.1022 62.3418 78.7693 62.2646 78.3716 62.2646H77.4234V66.2809ZM84.4028 67H83.5292L85.4921 61.5455H86.4429L88.4058 67H87.5322L85.9901 62.5362H85.9475L84.4028 67ZM84.5493 64.864H87.3831V65.5565H84.5493V64.864ZM90.48 62.2539V61.5455H94.7014V62.2539H92.9995V67H92.1792V62.2539H90.48ZM98.6572 61.5455V67H97.8342V61.5455H98.6572ZM106.794 64.2727C106.794 64.8551 106.687 65.3558 106.474 65.7749C106.261 66.1921 105.969 66.5135 105.598 66.739C105.229 66.9627 104.809 67.0746 104.338 67.0746C103.866 67.0746 103.444 66.9627 103.073 66.739C102.704 66.5135 102.413 66.1912 102.2 65.7722C101.986 65.3532 101.88 64.8533 101.88 64.2727C101.88 63.6903 101.986 63.1905 102.2 62.7733C102.413 62.3542 102.704 62.0328 103.073 61.8091C103.444 61.5836 103.866 61.4709 104.338 61.4709C104.809 61.4709 105.229 61.5836 105.598 61.8091C105.969 62.0328 106.261 62.3542 106.474 62.7733C106.687 63.1905 106.794 63.6903 106.794 64.2727ZM105.979 64.2727C105.979 63.8288 105.907 63.4551 105.763 63.1515C105.621 62.8461 105.426 62.6152 105.177 62.459C104.93 62.301 104.651 62.2219 104.338 62.2219C104.024 62.2219 103.743 62.301 103.497 62.459C103.25 62.6152 103.054 62.8461 102.911 63.1515C102.769 63.4551 102.698 63.8288 102.698 64.2727C102.698 64.7166 102.769 65.0913 102.911 65.3967C103.054 65.7003 103.25 65.9311 103.497 66.0891C103.743 66.2454 104.024 66.3235 104.338 66.3235C104.651 66.3235 104.93 66.2454 105.177 66.0891C105.426 65.9311 105.621 65.7003 105.763 65.3967C105.907 65.0913 105.979 64.7166 105.979 64.2727ZM114.422 61.5455V67H113.666L110.893 62.9996H110.843V67H110.02V61.5455H110.782L113.557 65.5511H113.607V61.5455H114.422ZM123.531 67.0772C123.165 67.0772 122.85 67.0107 122.586 66.8775C122.323 66.7443 122.12 66.5632 121.978 66.3342C121.836 66.1033 121.765 65.8423 121.765 65.5511C121.765 65.3292 121.812 65.1321 121.904 64.9599C121.996 64.7859 122.125 64.6252 122.29 64.4778C122.455 64.3304 122.646 64.1822 122.863 64.033L123.742 63.4125C123.891 63.3148 124.007 63.2118 124.09 63.1035C124.174 62.9934 124.216 62.8576 124.216 62.696C124.216 62.5682 124.161 62.4457 124.051 62.3285C123.94 62.2113 123.793 62.1527 123.608 62.1527C123.481 62.1527 123.368 62.1838 123.27 62.2459C123.174 62.3081 123.099 62.388 123.044 62.4856C122.991 62.5815 122.964 62.6827 122.964 62.7892C122.964 62.9135 122.998 63.0387 123.065 63.1648C123.134 63.2908 123.223 63.4213 123.331 63.5563C123.44 63.6895 123.553 63.8279 123.672 63.9718L126.205 67H125.305L123.209 64.5364C123.033 64.3287 122.87 64.1333 122.719 63.9505C122.568 63.7658 122.445 63.5794 122.351 63.3912C122.259 63.2012 122.213 62.9961 122.213 62.7759C122.213 62.5256 122.27 62.3036 122.383 62.1101C122.499 61.9148 122.659 61.7621 122.865 61.652C123.071 61.5419 123.313 61.4869 123.59 61.4869C123.87 61.4869 124.111 61.5419 124.312 61.652C124.514 61.7603 124.669 61.905 124.778 62.0861C124.888 62.2654 124.943 62.4616 124.943 62.6747C124.943 62.9339 124.878 63.163 124.748 63.3619C124.62 63.5589 124.444 63.7401 124.218 63.9052L123.124 64.7122C122.911 64.8684 122.762 65.0229 122.679 65.1756C122.597 65.3265 122.556 65.4446 122.556 65.5298C122.556 65.6861 122.596 65.8308 122.676 65.964C122.758 66.0971 122.872 66.2037 123.017 66.2836C123.165 66.3635 123.337 66.4034 123.534 66.4034C123.736 66.4034 123.933 66.3599 124.125 66.2729C124.319 66.1841 124.494 66.0572 124.65 65.892C124.808 65.7269 124.933 65.5289 125.025 65.2981C125.118 65.0673 125.164 64.8089 125.164 64.5231H125.883C125.883 64.8746 125.843 65.1721 125.763 65.4153C125.683 65.6568 125.586 65.8539 125.473 66.0066C125.361 66.1575 125.255 66.2756 125.156 66.3608C125.124 66.3892 125.094 66.4176 125.065 66.446C125.037 66.4744 125.007 66.5028 124.975 66.5312C124.79 66.7177 124.566 66.8553 124.304 66.9441C124.043 67.0328 123.785 67.0772 123.531 67.0772ZM133.739 67H132.865L134.828 61.5455H135.779L137.742 67H136.868L135.326 62.5362H135.283L133.739 67ZM133.885 64.864H136.719V65.5565H133.885V64.864ZM140.729 67V61.5455H142.674C143.096 61.5455 143.447 61.6183 143.726 61.7638C144.006 61.9094 144.216 62.111 144.354 62.3684C144.493 62.6241 144.562 62.9197 144.562 63.2553C144.562 63.5891 144.492 63.883 144.351 64.1369C144.213 64.389 144.003 64.5852 143.723 64.7255C143.444 64.8658 143.094 64.9359 142.671 64.9359H141.198V64.2275H142.596C142.863 64.2275 143.079 64.1893 143.246 64.1129C143.415 64.0366 143.538 63.9256 143.616 63.78C143.695 63.6344 143.734 63.4595 143.734 63.2553C143.734 63.0494 143.694 62.8709 143.614 62.72C143.536 62.5691 143.412 62.4537 143.244 62.3738C143.077 62.2921 142.857 62.2512 142.586 62.2512H141.552V67H140.729ZM143.422 64.5391L144.77 67H143.832L142.511 64.5391H143.422ZM152.294 63.3192H151.463C151.431 63.1417 151.371 62.9854 151.284 62.8505C151.197 62.7156 151.091 62.601 150.965 62.5069C150.839 62.4128 150.697 62.3418 150.541 62.2939C150.387 62.2459 150.222 62.2219 150.048 62.2219C149.734 62.2219 149.453 62.301 149.204 62.459C148.957 62.617 148.762 62.8487 148.618 63.1541C148.476 63.4595 148.405 63.8324 148.405 64.2727C148.405 64.7166 148.476 65.0913 148.618 65.3967C148.762 65.7021 148.958 65.9329 149.207 66.0891C149.455 66.2454 149.735 66.3235 150.046 66.3235C150.218 66.3235 150.381 66.3004 150.536 66.2543C150.692 66.2063 150.833 66.1362 150.959 66.0439C151.085 65.9515 151.192 65.8388 151.279 65.7056C151.368 65.5707 151.429 65.4162 151.463 65.2422L152.294 65.2449C152.249 65.513 152.163 65.7598 152.035 65.9853C151.909 66.209 151.747 66.4025 151.548 66.5659C151.351 66.7275 151.125 66.8526 150.871 66.9414C150.618 67.0302 150.341 67.0746 150.04 67.0746C149.568 67.0746 149.147 66.9627 148.778 66.739C148.409 66.5135 148.118 66.1912 147.904 65.7722C147.693 65.3532 147.588 64.8533 147.588 64.2727C147.588 63.6903 147.694 63.1905 147.907 62.7733C148.12 62.3542 148.411 62.0328 148.781 61.8091C149.15 61.5836 149.57 61.4709 150.04 61.4709C150.33 61.4709 150.6 61.5126 150.85 61.5961C151.102 61.6777 151.329 61.7985 151.529 61.9583C151.73 62.1163 151.896 62.3098 152.027 62.5389C152.159 62.7662 152.248 63.0263 152.294 63.3192ZM155.478 67V61.5455H156.301V63.9158H159.021V61.5455H159.846V67H159.021V64.6216H156.301V67H155.478ZM164.068 61.5455V67H163.245V61.5455H164.068ZM167.197 62.2539V61.5455H171.419V62.2539H169.717V67H168.897V62.2539H167.197ZM174.552 67V61.5455H177.971V62.2539H175.375V63.9158H177.793V64.6216H175.375V66.2915H178.003V67H174.552ZM185.801 63.3192H184.97C184.938 63.1417 184.879 62.9854 184.792 62.8505C184.705 62.7156 184.598 62.601 184.472 62.5069C184.346 62.4128 184.205 62.3418 184.049 62.2939C183.894 62.2459 183.73 62.2219 183.556 62.2219C183.242 62.2219 182.96 62.301 182.712 62.459C182.465 62.617 182.269 62.8487 182.126 63.1541C181.984 63.4595 181.913 63.8324 181.913 64.2727C181.913 64.7166 181.984 65.0913 182.126 65.3967C182.269 65.7021 182.466 65.9329 182.714 66.0891C182.963 66.2454 183.242 66.3235 183.553 66.3235C183.725 66.3235 183.889 66.3004 184.043 66.2543C184.199 66.2063 184.341 66.1362 184.467 66.0439C184.593 65.9515 184.699 65.8388 184.786 65.7056C184.875 65.5707 184.936 65.4162 184.97 65.2422L185.801 65.2449C185.757 65.513 185.67 65.7598 185.543 65.9853C185.417 66.209 185.254 66.4025 185.055 66.5659C184.858 66.7275 184.633 66.8526 184.379 66.9414C184.125 67.0302 183.848 67.0746 183.548 67.0746C183.076 67.0746 182.655 66.9627 182.285 66.739C181.916 66.5135 181.625 66.1912 181.412 65.7722C181.201 65.3532 181.095 64.8533 181.095 64.2727C181.095 63.6903 181.201 63.1905 181.414 62.7733C181.628 62.3542 181.919 62.0328 182.288 61.8091C182.657 61.5836 183.077 61.4709 183.548 61.4709C183.837 61.4709 184.107 61.5126 184.357 61.5961C184.61 61.6777 184.836 61.7985 185.037 61.9583C185.237 62.1163 185.403 62.3098 185.535 62.5389C185.666 62.7662 185.755 63.0263 185.801 63.3192ZM188.717 62.2539V61.5455H192.938V62.2539H191.236V67H190.416V62.2539H188.717ZM199.579 61.5455H200.404V65.133C200.404 65.5147 200.315 65.853 200.135 66.1477C199.956 66.4407 199.704 66.6715 199.379 66.8402C199.054 67.0071 198.673 67.0906 198.236 67.0906C197.801 67.0906 197.421 67.0071 197.096 66.8402C196.771 66.6715 196.519 66.4407 196.34 66.1477C196.161 65.853 196.071 65.5147 196.071 65.133V61.5455H196.894V65.0664C196.894 65.3132 196.948 65.5325 197.056 65.7243C197.167 65.916 197.322 66.0669 197.523 66.177C197.723 66.2853 197.961 66.3395 198.236 66.3395C198.513 66.3395 198.752 66.2853 198.953 66.177C199.155 66.0669 199.31 65.916 199.416 65.7243C199.525 65.5325 199.579 65.3132 199.579 65.0664V61.5455ZM203.801 67V61.5455H205.745C206.168 61.5455 206.518 61.6183 206.797 61.7638C207.078 61.9094 207.287 62.111 207.426 62.3684C207.564 62.6241 207.633 62.9197 207.633 63.2553C207.633 63.5891 207.563 63.883 207.423 64.1369C207.284 64.389 207.075 64.5852 206.794 64.7255C206.516 64.8658 206.165 64.9359 205.742 64.9359H204.27V64.2275H205.668C205.934 64.2275 206.151 64.1893 206.318 64.1129C206.486 64.0366 206.61 63.9256 206.688 63.78C206.766 63.6344 206.805 63.4595 206.805 63.2553C206.805 63.0494 206.765 62.8709 206.685 62.72C206.607 62.5691 206.484 62.4537 206.315 62.3738C206.148 62.2921 205.929 62.2512 205.657 62.2512H204.624V67H203.801ZM206.493 64.5391L207.841 67H206.904L205.583 64.5391H206.493ZM210.835 67V61.5455H214.255V62.2539H211.658V63.9158H214.076V64.6216H211.658V66.2915H214.287V67H210.835Z" fill="white" fill-opacity="0.5"/>
</svg>
